<svg width="652" height="318" viewBox="0 0 652 318" fill="none" xmlns="http://www.w3.org/2000/svg">
<path fill-rule="evenodd" clip-rule="evenodd" d="M609.91 222.306C612.679 222.753 615.624 222.939 618.794 222.939C620.128 222.939 621.446 222.902 622.742 222.829C622.685 224.384 622.659 226.011 622.659 227.844V280.389C622.659 286.272 622.858 289.462 623.357 293.849H610.096V288.964C610.096 287.767 610.097 286.671 610.196 285.375C605.012 292.653 599.727 295.245 590.055 295.245C583.076 295.245 577.792 293.65 573.405 290.16C566.724 284.976 563.035 275.902 563.035 265.134C563.035 246.888 573.504 235.322 589.956 235.322C596.137 235.322 601.223 236.818 605.111 239.909C606.906 241.305 608.003 242.501 610.196 245.392C610.196 244.196 610.196 244.195 610.096 242.201C609.997 241.503 609.997 239.609 609.997 237.915V227.944C609.997 225.766 609.967 223.944 609.91 222.306ZM591.85 245.791C582.179 245.792 575.997 253.369 575.997 265.234C575.997 277.099 582.378 284.577 592.349 284.577C597.633 284.577 602.718 282.084 605.709 277.996C608.201 274.706 609.597 269.82 609.597 264.636C609.597 259.75 607.703 254.565 604.812 251.375C601.721 247.985 596.636 245.791 591.85 245.791Z" fill="#FF7543"/>
<path fill-rule="evenodd" clip-rule="evenodd" d="M353.315 234.924C362.887 234.924 368.67 236.619 372.957 240.806C376.347 243.997 377.644 247.786 377.644 254.565V281.386C377.644 286.671 377.843 289.363 378.442 293.85H364.981V287.369C360.992 291.157 358.5 292.554 354.412 293.65C351.521 294.448 348.33 294.847 345.139 294.847C332.975 294.847 325.597 288.566 325.597 278.097C325.597 271.117 329.985 264.836 336.864 261.944C343.345 259.252 350.723 258.255 364.981 257.956V252.871C364.981 247.088 361.093 244.097 353.515 244.097C349.527 244.097 345.438 245.193 343.145 246.988C341.251 248.384 340.353 249.78 339.157 253.369L326.395 251.076C328.688 245.293 330.483 242.701 334.271 240.009C339.157 236.419 344.741 234.924 353.315 234.924ZM364.981 266.63C345.937 267.029 338.459 270.32 338.459 278.097C338.459 282.783 341.949 285.674 347.533 285.674C352.817 285.674 358.002 283.68 361.392 280.389C363.785 277.996 364.981 275.105 364.981 271.615V266.63Z" fill="#FF7543"/>
<path fill-rule="evenodd" clip-rule="evenodd" d="M489.255 234.924C498.827 234.924 504.61 236.619 508.897 240.806C512.287 243.997 513.584 247.786 513.584 254.565V281.386C513.584 286.671 513.783 289.363 514.381 293.85H500.921V287.369C496.932 291.157 494.44 292.554 490.352 293.65C487.461 294.448 484.27 294.847 481.079 294.847C468.915 294.847 461.537 288.566 461.537 278.097C461.537 271.117 465.924 264.836 472.804 261.944C479.285 259.252 486.663 258.255 500.921 257.956V252.871C500.921 247.088 497.032 244.097 489.455 244.097C485.467 244.097 481.378 245.193 479.085 246.988C477.191 248.384 476.293 249.78 475.097 253.369L462.335 251.076C464.628 245.293 466.423 242.701 470.211 240.009C475.097 236.419 480.681 234.924 489.255 234.924ZM500.921 266.63C481.877 267.029 474.399 270.32 474.399 278.097C474.399 282.783 477.889 285.674 483.472 285.674C488.757 285.674 493.942 283.68 497.332 280.389C499.724 277.996 500.921 275.105 500.921 271.615V266.63Z" fill="#FF7543"/>
<path d="M391.782 236.618C391.981 239.51 392.879 244.595 393.975 248.483L399.459 267.926C399.858 269.223 400.457 272.015 401.254 275.903C401.454 274.906 403.148 269.024 403.547 267.827L410.726 246.09C411.723 243.198 412.92 238.612 413.219 236.618H423.887C424.186 238.513 425.482 243.198 426.379 246.09L433.758 268.724C434.057 269.621 434.556 271.516 435.154 273.609C435.453 274.905 435.553 275.006 435.752 275.903C435.952 275.105 435.952 275.105 436.251 273.709C436.55 272.313 437.247 269.123 437.447 268.425L443.031 248.483C444.227 244.196 445.025 239.809 445.225 236.618H459.881C458.585 239.909 458.386 240.707 455.793 248.982L444.726 284.378C443.23 289.163 442.732 291.058 442.234 293.85H430.667C430.268 291.457 429.371 288.266 428.175 284.378L420.497 260.847C420.297 260.448 419.699 258.254 418.603 254.166C418.104 255.961 416.908 260.048 416.608 261.046L408.931 284.378C407.835 287.768 406.738 291.756 406.339 293.85H394.773C394.175 290.959 393.776 289.463 392.181 284.378L381.213 248.982C379.817 244.396 378.421 240.307 377.025 236.618H391.782Z" fill="#FF7543"/>
<path d="M554.741 235.522C557.134 235.522 559.527 235.821 564.013 236.618L560.524 249.182C556.336 247.985 554.242 247.586 551.65 247.586C546.665 247.586 542.875 249.181 540.083 252.472C537.591 255.363 536.594 257.657 535.995 262.442V280.888C535.995 286.272 536.195 289.164 536.694 293.85H522.436C522.934 288.965 523.133 286.073 523.133 280.888V249.58C523.133 243.498 523.034 240.706 522.436 236.618H535.995V245.991C539.585 238.912 545.767 235.522 554.741 235.522Z" fill="#FF7543"/>
<path fill-rule="evenodd" clip-rule="evenodd" d="M619.161 139.652C628.035 139.652 633.917 142.344 638.205 148.426C638.005 146.432 638.005 146.232 638.005 145.136V140.549H651.366C650.868 144.836 650.669 147.629 650.669 153.013V186.414C650.669 198.378 648.076 206.056 642.293 210.941C637.308 215.029 629.032 217.323 618.763 217.323C607.097 217.323 600.516 214.63 593.736 206.953L603.707 200.073C607.595 205.457 611.982 207.652 619.161 207.652C626.838 207.652 632.721 204.959 635.513 200.173C637.208 197.182 637.906 193.692 638.105 186.913C633.12 193.194 627.237 195.985 618.563 195.985C602.71 195.985 592.54 185.117 592.54 168.068C592.54 150.819 603.009 139.652 619.161 139.652ZM621.754 149.025C611.783 149.025 605.601 156.502 605.601 168.367C605.601 174.249 607.196 179.135 610.187 182.126C612.68 184.818 616.968 186.614 620.757 186.614C626.24 186.613 631.824 183.423 634.616 178.737C636.51 175.646 637.407 171.956 637.407 167.37C637.407 160.989 635.413 156.004 631.425 152.614C628.633 150.32 625.343 149.025 621.754 149.025Z" fill="#FF7543"/>
<path d="M353.216 138.755C362.987 138.755 370.764 142.543 375.55 149.523C376.846 151.517 377.644 153.112 379.039 156.801L366.876 159.693C365.779 156.602 365.081 155.206 363.785 153.611C361.392 150.619 357.902 149.025 353.515 149.025C343.744 149.025 337.662 156.702 337.662 169.066C337.662 181.529 343.844 189.205 353.914 189.205C358.899 189.205 362.887 187.212 365.38 183.622C366.277 182.226 366.776 181.13 367.374 178.637L379.738 181.129C378.342 185.117 377.345 187.212 375.55 189.605C370.764 196.185 363.087 199.675 353.615 199.675C336.067 199.675 324.7 187.81 324.7 169.364C324.7 159.992 327.691 151.915 333.175 146.332C338.06 141.347 345.04 138.755 353.216 138.755Z" fill="#FF7543"/>
<path fill-rule="evenodd" clip-rule="evenodd" d="M410.747 138.854C428.794 138.854 440.26 150.62 440.26 169.066C440.26 187.511 428.594 199.675 410.847 199.675C392.6 199.675 381.035 187.909 381.035 169.264C381.035 150.719 392.6 138.854 410.747 138.854ZM410.747 149.224C400.278 149.224 393.897 156.801 393.897 169.264C393.897 181.528 400.278 189.107 410.647 189.107C421.016 189.107 427.397 181.628 427.397 169.464C427.397 156.602 421.316 149.224 410.747 149.224Z" fill="#FF7543"/>
<path fill-rule="evenodd" clip-rule="evenodd" d="M503.266 118.415C502.767 123.201 502.568 126.69 502.568 131.775V184.32C502.568 190.203 502.767 193.394 503.266 197.781H490.006V192.895C490.006 191.699 490.006 190.601 490.106 189.305C484.921 196.584 479.636 199.176 469.965 199.176C462.986 199.176 457.701 197.581 453.314 194.092C446.634 188.907 442.944 179.834 442.944 169.066C442.944 150.819 453.413 139.254 469.865 139.254C476.047 139.254 481.132 140.749 485.02 143.84C486.815 145.235 487.912 146.432 490.106 149.323C490.106 148.127 490.105 148.127 490.006 146.133C489.906 145.435 489.906 143.54 489.906 141.845V131.875C489.906 125.893 489.707 122.602 489.208 118.415H503.266ZM471.759 149.722C462.088 149.722 455.906 157.3 455.906 169.165C455.906 181.03 462.288 188.508 472.258 188.508C477.542 188.508 482.627 186.015 485.618 181.928C488.111 178.637 489.507 173.751 489.507 168.567C489.507 163.681 487.612 158.496 484.721 155.305C481.63 151.915 476.545 149.722 471.759 149.722Z" fill="#FF7543"/>
<path d="M526.301 140.549C525.803 144.238 525.604 147.529 525.604 153.611V184.719C525.604 190.203 525.803 193.593 526.301 197.781H511.745C512.343 193.294 512.542 189.804 512.542 184.819V153.511C512.542 148.027 512.343 144.637 511.745 140.549H526.301Z" fill="#FF7543"/>
<path d="M568.525 139.552C576.203 139.552 581.886 142.045 585.475 146.931C587.868 150.221 588.866 154.209 588.866 160.889V184.819C588.866 190.303 589.065 194.092 589.663 197.781H575.205C575.704 193.294 575.904 189.904 575.904 184.819V162.684C575.904 158.496 575.405 155.804 574.208 153.91C572.613 151.318 569.622 149.822 565.833 149.822C558.655 149.822 552.771 154.807 548.384 164.678V184.819C548.384 189.704 548.585 193.494 549.183 197.781H534.825C535.423 193.494 535.622 190.402 535.622 184.819V153.511C535.622 148.027 535.423 144.637 534.825 140.549H548.384V145.834C548.384 147.329 548.385 147.628 548.186 150.12C554.268 142.344 559.552 139.552 568.525 139.552Z" fill="#FF7543"/>
<path d="M526.401 131.077H511.745V118.415H526.401V131.077Z" fill="#FF7543"/>
<path fill-rule="evenodd" clip-rule="evenodd" d="M500.246 42.6852C511.911 42.6853 521.084 48.4681 525.073 58.4386C526.967 63.2245 527.665 66.8141 527.964 73.5941C527.964 73.7935 527.964 74.0927 528.164 76.3857H484.791C485.289 81.8695 486.187 84.6615 488.481 87.553C491.372 91.1423 495.859 93.1361 500.943 93.1362C505.829 93.1362 510.017 91.3414 512.908 88.1508C514.105 86.7551 514.803 85.6585 515.8 82.9669L527.565 86.7556C525.272 91.5412 523.975 93.4361 521.483 95.9287C516.298 101.013 509.319 103.606 500.943 103.606C483.296 103.606 472.128 91.8399 472.128 73.1949C472.129 54.7495 483.196 42.6852 500.246 42.6852ZM500.046 52.9552C492.269 52.9552 486.586 58.1396 485.09 66.5149H515.202C514.504 62.1279 513.307 59.4361 510.814 56.9435C508.122 54.2514 504.732 52.9552 500.046 52.9552Z" fill="#FF7543"/>
<path fill-rule="evenodd" clip-rule="evenodd" d="M422.171 22.3447C421.672 26.5324 421.473 29.8232 421.473 35.8056V45.7762C421.473 47.3714 421.373 49.8639 421.273 53.2537C426.458 46.2746 432.64 43.1843 441.812 43.1842C458.563 43.1842 468.434 54.0518 468.434 72.5971C468.434 82.3683 465.643 90.3452 460.259 95.9287C455.572 100.715 449.191 103.107 441.115 103.107C431.942 103.107 426.259 100.215 421.273 93.236C421.373 94.5321 421.373 95.6295 421.373 96.826V101.711H408.112C408.61 97.3244 408.81 94.1333 408.81 88.2507V35.7058C408.81 30.6208 408.61 27.1306 408.112 22.3447H422.171ZM440.317 53.6529C434.734 53.6529 430.047 55.5478 426.757 59.1372C423.766 62.4276 421.871 67.8118 421.871 72.9963C421.871 79.2777 424.464 85.5591 428.452 88.7497C431.344 91.0427 435.232 92.4385 438.921 92.4385C448.991 92.4385 455.472 84.6615 455.472 72.5971C455.472 61.131 449.49 53.6531 440.317 53.6529Z" fill="#FF7543"/>
<path d="M337.064 44.4807C337.363 46.6742 338.26 50.0639 339.556 53.7527L349.726 82.6675C350.325 84.2627 351.222 87.2537 351.82 89.3475C352.518 87.1541 353.316 84.6615 354.014 82.6675L364.183 53.7527C365.778 49.0668 366.278 47.2722 366.676 44.4807H381.832C380.436 47.2724 379.239 50.0639 377.345 54.9494L361.991 92.8377C359.996 97.9227 359.697 98.8201 358.999 101.711H344.741C344.143 99.0195 343.744 97.823 341.75 92.8377L326.494 54.9494C325.398 52.3571 323.803 48.6681 321.809 44.4807H337.064Z" fill="#FF7543"/>
<path d="M399.588 44.4797C399.09 48.1688 398.891 51.4594 398.891 57.5413V88.6499C398.891 94.1337 399.09 97.5239 399.588 101.711H385.032C385.63 97.2248 385.829 93.7349 385.829 88.7497V57.4415C385.829 51.9578 385.63 48.5676 385.032 44.4797H399.588Z" fill="#FF7543"/>
<path d="M399.688 35.0081H385.032V22.3447H399.688V35.0081Z" fill="#FF7543"/>
<path d="M122.03 5.63357C135.051 -1.84073 151.117 -1.80103 164.175 5.73806L265.507 64.242C278.565 71.781 286.632 85.6741 286.669 100.687L286.959 217.193C286.996 232.206 278.998 246.06 265.978 253.534L164.937 311.535C151.916 319.009 135.85 318.97 122.792 311.43L21.4601 252.927C8.40218 245.388 0.335532 231.494 0.297982 216.481L0.00794289 99.9754C-0.0294261 84.9621 7.96786 71.1089 20.9884 63.6345L122.03 5.63357ZM165.16 95.8924C160.227 91.1207 152.406 91.1743 147.539 95.9568L147.309 96.1883L146.547 96.9832C114.518 130.632 114.211 165.522 122.583 191.652C126.691 204.474 132.798 215.034 137.803 222.337C140.321 226.011 142.604 228.923 144.291 230.954C145.136 231.971 145.836 232.771 146.346 233.34C146.601 233.624 146.809 233.851 146.964 234.018C147.042 234.102 147.107 234.171 147.157 234.225C147.183 234.252 147.204 234.275 147.223 234.295C147.232 234.304 147.241 234.313 147.248 234.321C147.252 234.325 147.257 234.33 147.259 234.332C147.264 234.337 147.268 234.342 156.281 225.705L147.268 234.342C152.092 239.376 160.083 239.546 165.117 234.722C170.149 229.901 170.321 221.916 165.505 216.882L165.506 216.881C165.509 216.884 165.511 216.887 165.514 216.889L165.513 216.887L165.506 216.881C165.498 216.871 165.487 216.859 165.473 216.845C165.412 216.779 165.301 216.658 165.145 216.484C164.832 216.136 164.341 215.575 163.711 214.817C162.449 213.299 160.649 211.008 158.63 208.062C154.561 202.125 149.779 193.782 146.628 183.948C140.643 165.269 140.183 140.668 164.29 114.969L165.457 113.744L165.681 113.507C170.299 108.483 170.093 100.664 165.16 95.8924ZM228.485 93.5291C221.696 92.5207 215.05 97.0619 213.482 103.714L213.41 104.031L188.541 222.84C187.113 229.664 191.546 236.027 198.443 237.052C205.339 238.076 212.088 233.374 213.517 226.55L238.387 107.741L238.448 107.422C239.675 100.719 235.274 94.5376 228.485 93.5291ZM73.4699 103.71C71.9013 97.058 65.2559 92.5168 58.4669 93.5252C51.6779 94.5335 47.2772 100.715 48.504 107.418L48.5656 107.737L73.4357 226.546C74.8644 233.37 81.6133 238.072 88.5099 237.048C95.4066 236.023 99.8398 229.66 98.4113 222.836L73.5411 104.027L73.4699 103.71Z" fill="#FF7543"/>
</svg>
