<svg width="324" height="268" viewBox="0 0 324 268" fill="none" xmlns="http://www.w3.org/2000/svg">
<path fill-rule="evenodd" clip-rule="evenodd" d="M282.677 195.896C285.387 196.333 288.268 196.516 291.37 196.516C292.675 196.516 293.964 196.479 295.232 196.408C295.177 197.929 295.151 199.521 295.151 201.315V252.729C295.151 258.484 295.346 261.606 295.834 265.898H282.859V261.118C282.859 259.948 282.859 258.874 282.957 257.606C277.884 264.728 272.713 267.265 263.25 267.265C256.421 267.265 251.251 265.704 246.958 262.289C240.422 257.216 236.812 248.338 236.812 237.802C236.812 219.949 247.055 208.632 263.152 208.632C269.201 208.632 274.177 210.096 277.981 213.12C279.737 214.486 280.811 215.656 282.957 218.485C282.957 217.315 282.957 217.314 282.859 215.363C282.762 214.68 282.762 212.827 282.762 211.169V201.413C282.762 199.282 282.733 197.499 282.677 195.896ZM265.006 218.876C255.543 218.876 249.494 226.29 249.494 237.899C249.494 249.509 255.738 256.826 265.494 256.826C270.665 256.826 275.64 254.387 278.566 250.387C281.005 247.167 282.371 242.387 282.371 237.314C282.371 232.534 280.518 227.461 277.688 224.339C274.664 221.022 269.689 218.876 265.006 218.876Z" fill="black"/>
<path fill-rule="evenodd" clip-rule="evenodd" d="M31.6094 208.242C40.9748 208.242 46.6331 209.901 50.8281 213.998C54.1451 217.12 55.414 220.827 55.4141 227.461V253.704C55.4141 258.875 55.609 261.509 56.1943 265.899H43.0234V259.558C39.1211 263.265 36.6825 264.631 32.6826 265.704C29.8534 266.485 26.7312 266.875 23.6094 266.875C11.7076 266.875 4.48844 260.729 4.48828 250.485C4.48828 243.656 8.78116 237.51 15.5127 234.681C21.8539 232.047 29.073 231.071 43.0234 230.778V225.803C43.0234 220.144 39.2191 217.218 31.8047 217.218C27.9023 217.218 23.902 218.291 21.6582 220.047C19.8048 221.413 18.9264 222.778 17.7559 226.29L5.26855 224.047C7.51235 218.389 9.26853 215.852 12.9756 213.218C17.7559 209.706 23.2194 208.242 31.6094 208.242ZM43.0234 239.266C24.3901 239.656 17.0732 242.876 17.0732 250.485C17.0734 255.07 20.488 257.899 25.9512 257.899C31.1218 257.899 36.1947 255.948 39.5117 252.729C41.853 250.387 43.0234 247.558 43.0234 244.144V239.266Z" fill="black"/>
<path fill-rule="evenodd" clip-rule="evenodd" d="M164.621 208.242C173.987 208.242 179.645 209.901 183.84 213.998C187.157 217.12 188.426 220.827 188.426 227.461V253.704C188.426 258.875 188.621 261.509 189.206 265.899H176.035V259.558C172.133 263.265 169.694 264.631 165.694 265.704C162.865 266.485 159.743 266.875 156.621 266.875C144.719 266.875 137.5 260.729 137.5 250.485C137.5 243.656 141.793 237.51 148.524 234.681C154.866 232.047 162.085 231.071 176.035 230.778V225.803C176.035 220.144 172.231 217.218 164.816 217.218C160.914 217.218 156.914 218.291 154.67 220.047C152.817 221.413 151.938 222.778 150.768 226.29L138.28 224.047C140.524 218.389 142.28 215.852 145.987 213.218C150.768 209.706 156.231 208.242 164.621 208.242ZM176.035 239.266C157.402 239.656 150.085 242.876 150.085 250.485C150.085 255.07 153.5 257.899 158.963 257.899C164.133 257.899 169.206 255.948 172.523 252.729C174.865 250.387 176.035 247.558 176.035 244.144V239.266Z" fill="black"/>
<path d="M69.2471 209.9C69.4422 212.73 70.3204 217.705 71.3936 221.51L76.7588 240.534C77.149 241.803 77.7352 244.534 78.5156 248.339C78.7107 247.363 80.3683 241.608 80.7588 240.437L87.7832 219.168C88.7588 216.339 89.93 211.851 90.2227 209.9H100.661C100.954 211.754 102.222 216.339 103.1 219.168L110.319 241.314C110.612 242.193 111.1 244.046 111.686 246.095C111.978 247.363 112.075 247.461 112.271 248.339C112.466 247.558 112.466 247.558 112.759 246.192C113.051 244.827 113.734 241.704 113.929 241.021L119.393 221.51C120.563 217.315 121.344 213.022 121.539 209.9H135.88C134.612 213.12 134.416 213.901 131.88 221.998L121.051 256.631C119.587 261.314 119.1 263.168 118.612 265.899H107.295C106.905 263.558 106.027 260.436 104.856 256.631L97.3438 233.607C97.1486 233.217 96.5634 231.07 95.4902 227.07C95.0025 228.826 93.8319 232.826 93.5391 233.802L86.0273 256.631C84.9542 259.948 83.8814 263.851 83.4912 265.899H72.1738C71.5885 263.07 71.1986 261.606 69.6377 256.631L58.9062 221.998C57.5404 217.51 56.1744 213.51 54.8086 209.9H69.2471Z" fill="black"/>
<path d="M228.696 208.828C231.037 208.828 233.379 209.12 237.769 209.9L234.354 222.193C230.257 221.023 228.208 220.632 225.672 220.632C220.794 220.632 217.086 222.193 214.354 225.412C211.916 228.241 210.94 230.485 210.354 235.168V253.217C210.354 258.485 210.55 261.314 211.038 265.899H197.087C197.575 261.119 197.77 258.29 197.77 253.217V222.583C197.77 216.632 197.672 213.9 197.087 209.9H210.354V219.071C213.867 212.145 219.916 208.828 228.696 208.828Z" fill="black"/>
<path fill-rule="evenodd" clip-rule="evenodd" d="M291.729 115.022C300.411 115.022 306.167 117.656 310.362 123.607C310.167 121.657 310.167 121.461 310.167 120.389V115.9H323.24C322.752 120.095 322.558 122.828 322.558 128.096V160.777C322.558 172.484 320.021 179.996 314.362 184.776C309.484 188.776 301.387 191.02 291.339 191.021C279.925 191.021 273.486 188.386 266.852 180.874L276.607 174.143C280.412 179.411 284.704 181.558 291.729 181.558C299.241 181.558 304.997 178.923 307.729 174.24C309.387 171.314 310.07 167.899 310.265 161.266C305.387 167.412 299.631 170.143 291.144 170.143C275.632 170.143 265.681 159.509 265.681 142.826C265.681 125.949 275.924 115.023 291.729 115.022ZM294.266 124.193C284.51 124.193 278.461 131.51 278.461 143.119C278.461 148.875 280.022 153.655 282.948 156.582C285.387 159.216 289.583 160.973 293.29 160.973C298.656 160.973 304.119 157.851 306.851 153.266C308.704 150.241 309.582 146.631 309.582 142.144C309.582 135.9 307.631 131.022 303.729 127.705C300.997 125.461 297.778 124.193 294.266 124.193Z" fill="black"/>
<path d="M31.5117 114.145C41.0724 114.145 48.6824 117.852 53.3652 124.681C54.6335 126.632 55.4135 128.193 56.7793 131.803L44.8779 134.632C43.8048 131.608 43.1217 130.242 41.8535 128.681C39.5121 125.754 36.0973 124.193 31.8047 124.193C22.244 124.193 16.293 131.706 16.293 143.803C16.2931 155.997 22.342 163.509 32.1953 163.509C37.073 163.509 40.9752 161.558 43.4141 158.046C44.2921 156.68 44.7799 155.607 45.3652 153.168L57.4629 155.606C56.0971 159.509 55.1213 161.558 53.3652 163.899C48.6824 170.338 41.1704 173.753 31.9023 173.753C14.7321 173.753 3.61035 162.143 3.61035 144.095C3.61041 134.924 6.5367 127.022 11.9023 121.559C16.6826 116.681 23.5121 114.145 31.5117 114.145Z" fill="black"/>
<path fill-rule="evenodd" clip-rule="evenodd" d="M87.8037 114.242C105.462 114.242 116.682 125.754 116.682 143.803C116.681 161.851 105.267 173.753 87.9014 173.753C70.0482 173.753 58.7314 162.24 58.7314 143.997C58.7316 125.852 70.0483 114.242 87.8037 114.242ZM87.8037 124.389C77.5603 124.389 71.3166 131.803 71.3164 143.997C71.3164 155.997 77.5601 163.412 87.7061 163.412C97.8521 163.412 104.096 156.095 104.096 144.192C104.096 131.607 98.1448 124.389 87.8037 124.389Z" fill="black"/>
<path fill-rule="evenodd" clip-rule="evenodd" d="M178.33 94.2432C177.842 98.9257 177.647 102.34 177.647 107.315V158.729C177.647 164.484 177.842 167.607 178.33 171.899H165.355V167.119C165.355 165.948 165.356 164.875 165.453 163.606C160.38 170.728 155.209 173.265 145.746 173.265C138.917 173.265 133.747 171.704 129.454 168.29C122.918 163.217 119.308 154.339 119.308 143.803C119.308 125.95 129.551 114.633 145.648 114.633C151.697 114.633 156.673 116.096 160.478 119.12C162.233 120.486 163.307 121.656 165.453 124.485C165.453 123.315 165.453 123.315 165.355 121.364C165.258 120.681 165.258 118.827 165.258 117.169V107.413C165.258 101.56 165.063 98.3404 164.575 94.2432H178.33ZM147.502 124.876C138.039 124.876 131.99 132.291 131.99 143.9C131.99 155.51 138.235 162.826 147.99 162.826C153.161 162.826 158.136 160.387 161.062 156.388C163.501 153.168 164.867 148.387 164.867 143.314C164.867 138.534 163.014 133.461 160.185 130.339C157.16 127.022 152.185 124.876 147.502 124.876Z" fill="black"/>
<path d="M200.869 115.9C200.381 119.51 200.187 122.73 200.187 128.681V159.119C200.187 164.485 200.381 167.802 200.869 171.899H186.626C187.211 167.509 187.406 164.095 187.406 159.217V128.583C187.406 123.217 187.211 119.9 186.626 115.9H200.869Z" fill="black"/>
<path d="M242.184 114.925C249.696 114.925 255.256 117.364 258.769 122.145C261.11 125.364 262.086 129.266 262.086 135.803V159.217C262.086 164.582 262.281 168.29 262.866 171.899H248.72C249.208 167.509 249.403 164.192 249.403 159.217V137.559C249.403 133.461 248.915 130.827 247.744 128.974C246.183 126.437 243.257 124.974 239.55 124.974C232.526 124.974 226.769 129.851 222.477 139.51V159.217C222.477 163.997 222.672 167.705 223.258 171.899H209.209C209.794 167.705 209.989 164.68 209.989 159.217V128.583C209.989 123.217 209.794 119.9 209.209 115.9H222.477V121.071C222.477 122.534 222.477 122.827 222.282 125.266C228.233 117.656 233.404 114.925 242.184 114.925Z" fill="black"/>
<path d="M200.967 106.633H186.626V94.2432H200.967V106.633Z" fill="black"/>
<path fill-rule="evenodd" clip-rule="evenodd" d="M175.375 20.1445C186.789 20.1446 195.765 25.8029 199.667 35.5586C201.521 40.2414 202.203 43.7537 202.496 50.3877C202.496 50.5828 202.496 50.8756 202.691 53.1191H160.253C160.741 58.4849 161.619 61.2167 163.863 64.0459C166.692 67.5578 171.082 69.5088 176.058 69.5088C180.838 69.5088 184.935 67.7527 187.765 64.6309C188.935 63.2652 189.618 62.1922 190.594 59.5586L202.105 63.2656C199.862 67.9482 198.593 69.8023 196.154 72.2412C191.081 77.2164 184.252 79.7529 176.058 79.7529C158.79 79.7529 147.863 68.2405 147.863 49.9971C147.863 31.949 158.693 20.1445 175.375 20.1445ZM175.18 30.1934C167.57 30.1934 162.009 35.2661 160.546 43.4609H190.009C189.326 39.1684 188.155 36.5346 185.716 34.0957C183.082 31.4616 179.765 30.1934 175.18 30.1934Z" fill="black"/>
<path fill-rule="evenodd" clip-rule="evenodd" d="M98.9814 0.242188C98.4937 4.33964 98.2988 7.55958 98.2988 13.4131V23.1689C98.2988 24.7298 98.2011 27.1686 98.1035 30.4854C103.176 23.6566 109.225 20.6328 118.2 20.6328C134.59 20.6328 144.248 31.2663 144.248 49.4121C144.248 58.9728 141.517 66.7779 136.249 72.2412C131.664 76.924 125.42 79.2646 117.518 79.2646C108.542 79.2646 102.981 76.4355 98.1035 69.6064C98.2011 70.8747 98.2012 71.9484 98.2012 73.1191V77.8994H85.2256C85.7134 73.6068 85.9082 70.4845 85.9082 64.7285V13.3154C85.9082 8.33999 85.7134 4.92497 85.2256 0.242188H98.9814ZM116.737 30.876C111.274 30.876 106.688 32.7301 103.469 36.2422C100.542 39.4617 98.6885 44.7299 98.6885 49.8027C98.6886 55.9488 101.226 62.095 105.128 65.2168C107.957 67.4605 111.762 68.8262 115.371 68.8262C125.225 68.8262 131.565 61.2167 131.565 49.4121C131.565 38.193 125.712 30.8762 116.737 30.876Z" fill="black"/>
<path d="M15.708 21.9014C16.0007 24.0476 16.8784 27.3643 18.1465 30.9736L28.0977 59.2656C28.683 60.8265 29.5611 63.753 30.1465 65.8018C30.8294 63.6556 31.6101 61.2167 32.293 59.2656L42.2432 30.9736C43.804 26.3887 44.2924 24.6327 44.6826 21.9014H59.5117C58.146 24.6329 56.9746 27.3643 55.1211 32.1445L40.0977 69.2168C38.1465 74.1922 37.8538 75.0703 37.1709 77.8994H23.2197C22.6344 75.2654 22.2441 74.0947 20.293 69.2168L5.36621 32.1445C4.2931 29.6081 2.73231 25.9986 0.78125 21.9014H15.708Z" fill="black"/>
<path d="M76.8857 21.9004C76.398 25.51 76.2031 28.7297 76.2031 34.6807V65.1191C76.2031 70.4848 76.398 73.802 76.8857 77.8994H62.6426C63.2279 73.5093 63.4228 70.0946 63.4229 65.2168V34.583C63.4228 29.2174 63.2279 25.9002 62.6426 21.9004H76.8857Z" fill="black"/>
<path d="M76.9834 12.6328H62.6426V0.242188H76.9834V12.6328Z" fill="black"/>
</svg>
