<svg width="64" height="65" viewBox="0 0 64 65" fill="none" xmlns="http://www.w3.org/2000/svg">
<path d="M6.66512 57.8327L7.01864 60.4763C6.19505 60.5864 5.36692 60.306 4.77938 59.7185C4.1919 59.1309 3.91147 58.3028 4.02157 57.4792L6.66512 57.8327ZM16.0069 40.4685C17.9656 40.5291 19.8383 41.2665 21.3106 42.5476L21.5997 42.8103L21.6319 42.8425C24.8019 45.9725 24.7606 50.9971 22.0352 54.2214L22.0343 54.2204C20.854 55.6228 19.2303 56.6536 17.668 57.4167C16.0729 58.1959 14.351 58.7879 12.8048 59.2302C11.2502 59.6749 9.81646 59.9843 8.77352 60.1824C8.25016 60.2817 7.8204 60.3541 7.51766 60.4021C7.36654 60.426 7.24664 60.4435 7.16219 60.4558C7.11993 60.4619 7.08564 60.4671 7.0616 60.4704C7.04991 60.4721 7.04045 60.4734 7.03328 60.4743C7.02965 60.4748 7.02595 60.475 7.02352 60.4753C7.02247 60.4755 7.0214 60.4752 7.02059 60.4753L7.01961 60.4763L6.66512 57.8327C4.15713 57.4975 4.02903 57.4796 4.02254 57.4783V57.4743C4.02287 57.4719 4.02302 57.4682 4.02352 57.4646C4.0245 57.4574 4.02676 57.448 4.0284 57.4363C4.03174 57.4123 4.03595 57.3788 4.04207 57.3367C4.05436 57.2521 4.07275 57.1317 4.09676 56.9802C4.14475 56.6775 4.21713 56.2476 4.31649 55.7243C4.51452 54.6814 4.82303 53.2476 5.26766 51.6931C5.70995 50.1468 6.30197 48.425 7.08114 46.8298C7.84538 45.2652 8.87772 43.6384 10.2833 42.4577V42.4587C11.8811 41.1133 13.919 40.4039 16.0069 40.4685ZM58.9542 3.18235C60.2922 3.32634 61.3321 4.45925 61.3321 5.83372C61.332 13.3282 59.2282 26.3859 45.7237 36.2761C45.9511 37.2298 46.2119 38.4852 46.3907 39.8728C46.5857 41.3856 46.6954 43.127 46.5362 44.8406C46.3791 46.5313 45.9425 48.3926 44.8848 49.9792L44.8819 49.9831C43.0713 52.6893 39.6567 54.2586 37.2716 55.1238C35.9901 55.5886 34.806 55.9178 33.9444 56.1316C33.5116 56.2389 33.1545 56.3185 32.9014 56.3718C32.7749 56.3985 32.6737 56.4192 32.6016 56.4333C32.5657 56.4404 32.5369 56.4459 32.5157 56.4499C32.5051 56.4519 32.4961 56.4536 32.4893 56.4548C32.4864 56.4554 32.4837 56.4554 32.4815 56.4558C32.4803 56.456 32.4786 56.4566 32.4776 56.4568H32.4766C32.4754 56.4532 32.4572 56.3573 31.9991 53.8337L32.4757 56.4568C31.6978 56.598 30.897 56.3872 30.2901 55.8806C29.6833 55.374 29.3322 54.6242 29.3321 53.8337V41.6042L22.8946 35.1667H10.6651C9.87453 35.1667 9.1249 34.8156 8.61825 34.2087C8.11172 33.6019 7.90003 32.8019 8.0411 32.0241L10.6651 32.4997C8.08736 32.0318 8.04178 32.0239 8.0411 32.0232L8.04207 32.0212C8.04223 32.0204 8.04188 32.0193 8.04207 32.0183C8.04251 32.0159 8.0434 32.0129 8.04403 32.0095C8.04527 32.0028 8.04692 31.9937 8.04891 31.9831C8.0529 31.962 8.05851 31.933 8.06551 31.8972C8.07959 31.8251 8.09938 31.7239 8.12606 31.5974C8.1794 31.3444 8.25897 30.9881 8.36629 30.5554C8.58003 29.6937 8.91013 28.5091 9.37508 27.2273C10.2403 24.842 11.8094 21.4274 14.5157 19.6169L14.5196 19.615L14.8194 19.4236C16.3374 18.5034 18.0721 18.111 19.6573 17.9636C21.3711 17.8043 23.1131 17.9141 24.6261 18.1091C26.0279 18.2898 27.2949 18.5529 28.252 18.782C31.481 14.2243 35.7051 10.4485 40.6153 7.74778C46.1483 4.70465 52.3682 3.12756 58.6827 3.16673L58.9542 3.18235ZM15.8419 45.7995C15.1636 45.7786 14.4991 45.9772 13.9464 46.362L13.7169 46.5388L13.7139 46.5417C13.1196 47.041 12.4848 47.9204 11.8741 49.1706C11.2783 50.3905 10.7866 51.7928 10.3956 53.1599C10.27 53.5989 10.158 54.0291 10.0557 54.4411C10.468 54.3388 10.8987 54.2279 11.338 54.1023C12.705 53.7113 14.1074 53.2205 15.3272 52.6247C16.5773 52.0141 17.4567 51.3792 17.9561 50.7849L17.962 50.7781L18.1475 50.5359C19.0034 49.2998 18.8636 47.6199 17.8985 46.6521C17.3397 46.1272 16.6088 45.8233 15.8419 45.7995ZM40.9054 39.3025C38.8833 40.4189 36.8005 41.4221 34.6661 42.3074V50.3796C34.9221 50.296 35.1859 50.2071 35.4532 50.1101C37.7546 49.2753 39.6731 48.1775 40.4493 47.0173C40.8303 46.4439 41.113 45.5591 41.2257 44.3474C41.3364 43.1563 41.2657 41.8347 41.1007 40.5544C41.0448 40.1213 40.9758 39.7017 40.9054 39.3025ZM55.8897 8.60423C51.4435 8.96513 47.1125 10.2609 43.1856 12.4206C38.5979 14.9439 34.7094 18.564 31.8653 22.9538L31.5929 23.3806L31.5782 23.405C29.8575 26.0927 28.37 28.922 27.1319 31.8611L32.6436 37.3728C35.6194 36.1372 38.486 34.651 41.212 32.9294C52.4763 25.3617 55.3448 15.4679 55.8897 8.60423ZM23.9444 23.3982C22.6642 23.2332 21.3425 23.1635 20.1514 23.2741C18.9373 23.387 18.051 23.6702 17.4776 24.0525C16.3188 24.8302 15.2226 26.7469 14.3888 29.0456C14.2916 29.3133 14.201 29.5774 14.1173 29.8337H22.2003C23.097 27.7003 24.1119 25.6191 25.2432 23.6013C24.8301 23.5278 24.3945 23.4562 23.9444 23.3982Z" fill="white"/>
<path d="M6.66512 57.8327L7.01864 60.4763C6.19505 60.5864 5.36692 60.306 4.77938 59.7185C4.1919 59.1309 3.91147 58.3028 4.02157 57.4792L6.66512 57.8327ZM16.0069 40.4685C17.9656 40.5291 19.8383 41.2665 21.3106 42.5476L21.5997 42.8103L21.6319 42.8425C24.8019 45.9725 24.7606 50.9971 22.0352 54.2214L22.0343 54.2204C20.854 55.6228 19.2303 56.6536 17.668 57.4167C16.0729 58.1959 14.351 58.7879 12.8048 59.2302C11.2502 59.6749 9.81646 59.9843 8.77352 60.1824C8.25016 60.2817 7.8204 60.3541 7.51766 60.4021C7.36654 60.426 7.24664 60.4435 7.16219 60.4558C7.11993 60.4619 7.08564 60.4671 7.0616 60.4704C7.04991 60.4721 7.04045 60.4734 7.03328 60.4743C7.02965 60.4748 7.02595 60.475 7.02352 60.4753C7.02247 60.4755 7.0214 60.4752 7.02059 60.4753L7.01961 60.4763L6.66512 57.8327C4.15713 57.4975 4.02903 57.4796 4.02254 57.4783V57.4743C4.02287 57.4719 4.02302 57.4682 4.02352 57.4646C4.0245 57.4574 4.02676 57.448 4.0284 57.4363C4.03174 57.4123 4.03595 57.3788 4.04207 57.3367C4.05436 57.2521 4.07275 57.1317 4.09676 56.9802C4.14475 56.6775 4.21713 56.2476 4.31649 55.7243C4.51452 54.6814 4.82303 53.2476 5.26766 51.6931C5.70995 50.1468 6.30197 48.425 7.08114 46.8298C7.84538 45.2652 8.87772 43.6384 10.2833 42.4577V42.4587C11.8811 41.1133 13.919 40.4039 16.0069 40.4685ZM58.9542 3.18235C60.2922 3.32634 61.3321 4.45925 61.3321 5.83372C61.332 13.3282 59.2282 26.3859 45.7237 36.2761C45.9511 37.2298 46.2119 38.4852 46.3907 39.8728C46.5857 41.3856 46.6954 43.127 46.5362 44.8406C46.3791 46.5313 45.9425 48.3926 44.8848 49.9792L44.8819 49.9831C43.0713 52.6893 39.6567 54.2586 37.2716 55.1238C35.9901 55.5886 34.806 55.9178 33.9444 56.1316C33.5116 56.2389 33.1545 56.3185 32.9014 56.3718C32.7749 56.3985 32.6737 56.4192 32.6016 56.4333C32.5657 56.4404 32.5369 56.4459 32.5157 56.4499C32.5051 56.4519 32.4961 56.4536 32.4893 56.4548C32.4864 56.4554 32.4837 56.4554 32.4815 56.4558C32.4803 56.456 32.4786 56.4566 32.4776 56.4568H32.4766C32.4754 56.4532 32.4572 56.3573 31.9991 53.8337L32.4757 56.4568C31.6978 56.598 30.897 56.3872 30.2901 55.8806C29.6833 55.374 29.3322 54.6242 29.3321 53.8337V41.6042L22.8946 35.1667H10.6651C9.87453 35.1667 9.1249 34.8156 8.61825 34.2087C8.11172 33.6019 7.90003 32.8019 8.0411 32.0241L10.6651 32.4997C8.08736 32.0318 8.04178 32.0239 8.0411 32.0232L8.04207 32.0212C8.04223 32.0204 8.04188 32.0193 8.04207 32.0183C8.04251 32.0159 8.0434 32.0129 8.04403 32.0095C8.04527 32.0028 8.04692 31.9937 8.04891 31.9831C8.0529 31.962 8.05851 31.933 8.06551 31.8972C8.07959 31.8251 8.09938 31.7239 8.12606 31.5974C8.1794 31.3444 8.25897 30.9881 8.36629 30.5554C8.58003 29.6937 8.91013 28.5091 9.37508 27.2273C10.2403 24.842 11.8094 21.4274 14.5157 19.6169L14.5196 19.615L14.8194 19.4236C16.3374 18.5034 18.0721 18.111 19.6573 17.9636C21.3711 17.8043 23.1131 17.9141 24.6261 18.1091C26.0279 18.2898 27.2949 18.5529 28.252 18.782C31.481 14.2243 35.7051 10.4485 40.6153 7.74778C46.1483 4.70465 52.3682 3.12756 58.6827 3.16673L58.9542 3.18235ZM15.8419 45.7995C15.1636 45.7786 14.4991 45.9772 13.9464 46.362L13.7169 46.5388L13.7139 46.5417C13.1196 47.041 12.4848 47.9204 11.8741 49.1706C11.2783 50.3905 10.7866 51.7928 10.3956 53.1599C10.27 53.5989 10.158 54.0291 10.0557 54.4411C10.468 54.3388 10.8987 54.2279 11.338 54.1023C12.705 53.7113 14.1074 53.2205 15.3272 52.6247C16.5773 52.0141 17.4567 51.3792 17.9561 50.7849L17.962 50.7781L18.1475 50.5359C19.0034 49.2998 18.8636 47.6199 17.8985 46.6521C17.3397 46.1272 16.6088 45.8233 15.8419 45.7995ZM40.9054 39.3025C38.8833 40.4189 36.8005 41.4221 34.6661 42.3074V50.3796C34.9221 50.296 35.1859 50.2071 35.4532 50.1101C37.7546 49.2753 39.6731 48.1775 40.4493 47.0173C40.8303 46.4439 41.113 45.5591 41.2257 44.3474C41.3364 43.1563 41.2657 41.8347 41.1007 40.5544C41.0448 40.1213 40.9758 39.7017 40.9054 39.3025ZM55.8897 8.60423C51.4435 8.96513 47.1125 10.2609 43.1856 12.4206C38.5979 14.9439 34.7094 18.564 31.8653 22.9538L31.5929 23.3806L31.5782 23.405C29.8575 26.0927 28.37 28.922 27.1319 31.8611L32.6436 37.3728C35.6194 36.1372 38.486 34.651 41.212 32.9294C52.4763 25.3617 55.3448 15.4679 55.8897 8.60423ZM23.9444 23.3982C22.6642 23.2332 21.3425 23.1635 20.1514 23.2741C18.9373 23.387 18.051 23.6702 17.4776 24.0525C16.3188 24.8302 15.2226 26.7469 14.3888 29.0456C14.2916 29.3133 14.201 29.5774 14.1173 29.8337H22.2003C23.097 27.7003 24.1119 25.6191 25.2432 23.6013C24.8301 23.5278 24.3945 23.4562 23.9444 23.3982Z" fill="url(#paint0_radial_36_138)"/>
<defs>
<radialGradient id="paint0_radial_36_138" cx="0" cy="0" r="1" gradientUnits="userSpaceOnUse" gradientTransform="translate(8.38059 60.4998) rotate(-45.2592) scale(181.693 139.796)">
<stop stop-color="#FF7535"/>
<stop offset="0.100962" stop-color="#FF4A9E"/>
<stop offset="0.259615" stop-color="#7CC0FF"/>
<stop offset="0.451923" stop-color="#8E65FF"/>
<stop offset="0.6875" stop-color="#FF4747"/>
<stop offset="0.966346" stop-color="#A200FF"/>
</radialGradient>
</defs>
</svg>
