<svg width="590" height="287" viewBox="0 0 590 287" fill="none" xmlns="http://www.w3.org/2000/svg">
<path fill-rule="evenodd" clip-rule="evenodd" d="M551.577 201.308C554.078 201.711 556.738 201.879 559.601 201.879C560.806 201.879 561.995 201.846 563.166 201.78C563.115 203.184 563.091 204.653 563.091 206.309V253.764C563.091 259.077 563.271 261.959 563.721 265.92H551.746V261.508C551.746 260.428 551.746 259.437 551.836 258.267C547.153 264.84 542.38 267.181 533.646 267.181C527.343 267.181 522.57 265.741 518.608 262.589C512.575 257.906 509.243 249.712 509.243 239.987C509.243 223.508 518.698 213.063 533.556 213.063C539.139 213.063 543.731 214.414 547.243 217.205C548.864 218.466 549.855 219.546 551.836 222.158C551.836 221.077 551.836 221.077 551.746 219.276C551.656 218.645 551.655 216.935 551.655 215.404V206.4C551.655 204.432 551.629 202.787 551.577 201.308ZM535.266 222.518C526.532 222.518 520.949 229.362 520.949 240.077C520.949 250.793 526.712 257.547 535.717 257.547C540.49 257.547 545.082 255.295 547.783 251.603C550.034 248.631 551.295 244.219 551.295 239.537C551.295 235.125 549.584 230.442 546.973 227.56C544.181 224.499 539.589 222.518 535.266 222.518Z" fill="white"/>
<path fill-rule="evenodd" clip-rule="evenodd" d="M319.839 212.703C328.483 212.703 333.706 214.234 337.578 218.016C340.639 220.897 341.811 224.319 341.811 230.442V254.665C341.811 259.437 341.99 261.869 342.531 265.921H330.374V260.068C326.772 263.49 324.521 264.751 320.829 265.741C318.218 266.461 315.336 266.822 312.454 266.822C301.469 266.822 294.806 261.149 294.805 251.694C294.805 245.391 298.768 239.717 304.981 237.106C310.834 234.675 317.497 233.774 330.374 233.504V228.912C330.374 223.689 326.862 220.988 320.019 220.988C316.417 220.988 312.725 221.978 310.653 223.599C308.943 224.859 308.132 226.12 307.052 229.361L295.526 227.291C297.597 222.068 299.218 219.727 302.639 217.296C307.052 214.054 312.095 212.703 319.839 212.703ZM330.374 241.338C313.175 241.698 306.422 244.67 306.422 251.694C306.422 255.926 309.573 258.537 314.616 258.537C319.388 258.537 324.071 256.736 327.133 253.764C329.294 251.603 330.374 248.992 330.374 245.84V241.338Z" fill="white"/>
<path fill-rule="evenodd" clip-rule="evenodd" d="M442.61 212.703C451.254 212.703 456.477 214.234 460.349 218.016C463.411 220.897 464.582 224.319 464.582 230.442V254.665C464.582 259.437 464.762 261.869 465.302 265.921H453.145V260.068C449.544 263.49 447.293 264.751 443.601 265.741C440.989 266.461 438.107 266.822 435.226 266.822C424.24 266.822 417.577 261.149 417.577 251.694C417.577 245.391 421.539 239.717 427.753 237.106C433.606 234.675 440.269 233.774 453.145 233.504V228.912C453.145 223.689 449.634 220.988 442.79 220.988C439.188 220.988 435.496 221.978 433.425 223.599C431.714 224.859 430.904 226.12 429.823 229.361L418.297 227.291C420.368 222.068 421.989 219.727 425.411 217.296C429.823 214.054 434.866 212.703 442.61 212.703ZM453.145 241.338C435.947 241.698 429.193 244.67 429.193 251.694C429.193 255.926 432.345 258.537 437.387 258.537C442.16 258.537 446.842 256.736 449.904 253.764C452.065 251.603 453.145 248.992 453.145 245.84V241.338Z" fill="white"/>
<path d="M354.579 214.234C354.759 216.845 355.569 221.437 356.56 224.949L361.512 242.509C361.872 243.68 362.413 246.201 363.134 249.713C363.314 248.812 364.844 243.5 365.204 242.419L371.688 222.788C372.588 220.176 373.669 216.034 373.939 214.234H383.574C383.844 215.944 385.015 220.176 385.825 222.788L392.489 243.229C392.759 244.04 393.21 245.751 393.75 247.641C394.02 248.812 394.11 248.902 394.29 249.713C394.47 248.992 394.47 248.992 394.74 247.731C395.011 246.471 395.64 243.589 395.82 242.959L400.864 224.949C401.944 221.077 402.665 217.115 402.845 214.234H416.082C414.911 217.205 414.731 217.926 412.39 225.4L402.394 257.366C401.043 261.689 400.594 263.4 400.143 265.921H389.697C389.337 263.76 388.527 260.878 387.447 257.366L380.512 236.115C380.332 235.755 379.792 233.774 378.801 230.082C378.351 231.702 377.271 235.394 377 236.295L370.067 257.366C369.077 260.428 368.086 264.03 367.726 265.921H357.28C356.74 263.31 356.38 261.959 354.939 257.366L345.034 225.4C343.773 221.258 342.512 217.565 341.252 214.234H354.579Z" fill="white"/>
<path d="M501.752 213.244C503.913 213.244 506.074 213.513 510.126 214.234L506.975 225.58C503.193 224.5 501.302 224.139 498.961 224.139C494.458 224.139 491.036 225.58 488.515 228.551C486.264 231.162 485.363 233.234 484.823 237.556V254.215C484.823 259.078 485.003 261.689 485.454 265.921H472.576C473.027 261.509 473.207 258.898 473.207 254.215V225.94C473.207 220.447 473.117 217.925 472.576 214.234H484.823V222.698C488.064 216.305 493.648 213.244 501.752 213.244Z" fill="white"/>
<path fill-rule="evenodd" clip-rule="evenodd" d="M559.932 126.66C567.946 126.66 573.259 129.091 577.131 134.584C576.951 132.783 576.951 132.603 576.951 131.613V127.47H589.018C588.567 131.342 588.388 133.864 588.388 138.727V168.892C588.388 179.698 586.046 186.631 580.823 191.044C576.321 194.736 568.847 196.807 559.572 196.807C549.037 196.807 543.093 194.375 536.97 187.442L545.975 181.229C549.487 186.091 553.449 188.073 559.932 188.073C566.866 188.073 572.179 185.641 574.7 181.319C576.231 178.617 576.861 175.466 577.041 169.343C572.539 175.016 567.226 177.537 559.392 177.537C545.074 177.537 535.889 167.721 535.889 152.323C535.89 136.745 545.344 126.66 559.932 126.66ZM562.274 135.125C553.269 135.125 547.686 141.878 547.686 152.594C547.686 157.906 549.126 162.319 551.828 165.02C554.079 167.451 557.951 169.073 561.373 169.073C566.326 169.072 571.368 166.191 573.89 161.959C575.601 159.167 576.411 155.835 576.411 151.693C576.411 145.93 574.61 141.428 571.008 138.366C568.487 136.295 565.515 135.125 562.274 135.125Z" fill="white"/>
<path d="M319.748 125.85C328.573 125.85 335.597 129.271 339.919 135.575C341.09 137.376 341.81 138.817 343.071 142.148L332.086 144.76C331.095 141.968 330.465 140.707 329.294 139.267C327.133 136.565 323.981 135.125 320.019 135.125C311.194 135.125 305.701 142.059 305.701 153.225C305.701 164.48 311.285 171.413 320.379 171.413C324.882 171.413 328.483 169.613 330.734 166.371C331.545 165.111 331.995 164.12 332.535 161.869L343.702 164.12C342.441 167.721 341.54 169.613 339.919 171.774C335.597 177.717 328.663 180.869 320.109 180.869C304.261 180.869 293.995 170.153 293.995 153.494C293.995 145.03 296.696 137.736 301.649 132.693C306.061 128.191 312.365 125.85 319.748 125.85Z" fill="white"/>
<path fill-rule="evenodd" clip-rule="evenodd" d="M371.707 125.94C388.005 125.94 398.361 136.566 398.361 153.225C398.361 169.883 387.825 180.869 371.797 180.869C355.318 180.869 344.873 170.243 344.873 153.404C344.873 136.655 355.318 125.94 371.707 125.94ZM371.707 135.305C362.252 135.305 356.489 142.148 356.489 153.404C356.489 164.48 362.252 171.324 371.617 171.324C380.981 171.324 386.744 164.57 386.744 153.584C386.744 141.968 381.252 135.305 371.707 135.305Z" fill="white"/>
<path fill-rule="evenodd" clip-rule="evenodd" d="M455.264 107.48C454.813 111.802 454.634 114.954 454.634 119.546V167.001C454.634 172.314 454.813 175.196 455.264 179.158H443.288V174.746C443.288 173.665 443.288 172.674 443.378 171.504C438.696 178.077 433.923 180.418 425.188 180.418C418.885 180.418 414.112 178.978 410.15 175.827C404.117 171.144 400.785 162.95 400.785 153.225C400.785 136.746 410.24 126.3 425.098 126.3C430.681 126.3 435.274 127.651 438.786 130.442C440.406 131.703 441.397 132.783 443.378 135.394C443.378 134.314 443.378 134.314 443.288 132.514C443.198 131.883 443.198 130.172 443.198 128.641V119.636C443.198 114.234 443.018 111.262 442.568 107.48H455.264ZM426.809 135.755C418.074 135.755 412.491 142.599 412.491 153.315C412.492 164.03 418.255 170.783 427.26 170.783C432.032 170.783 436.624 168.532 439.325 164.841C441.577 161.869 442.837 157.456 442.837 152.774C442.837 148.362 441.126 143.679 438.515 140.797C435.724 137.736 431.131 135.755 426.809 135.755Z" fill="white"/>
<path d="M476.067 127.47C475.617 130.802 475.437 133.774 475.437 139.267V167.362C475.437 172.314 475.617 175.376 476.067 179.158H462.921C463.461 175.106 463.641 171.954 463.641 167.452V139.177C463.641 134.224 463.461 131.162 462.921 127.47H476.067Z" fill="white"/>
<path d="M514.201 126.57C521.135 126.57 526.268 128.821 529.509 133.234C531.67 136.205 532.571 139.807 532.571 145.84V167.452C532.571 172.404 532.751 175.826 533.292 179.158H520.234C520.684 175.106 520.865 172.044 520.865 167.452V147.461C520.865 143.679 520.414 141.248 519.334 139.537C517.893 137.196 515.192 135.845 511.77 135.845C505.287 135.845 499.974 140.347 496.011 149.262V167.452C496.011 171.864 496.192 175.286 496.733 179.158H483.765C484.306 175.286 484.485 172.494 484.485 167.452V139.177C484.485 134.224 484.306 131.162 483.765 127.47H496.011V132.243C496.011 133.594 496.012 133.864 495.832 136.115C501.325 129.091 506.097 126.57 514.201 126.57Z" fill="white"/>
<path d="M476.158 118.916H462.921V107.48H476.158V118.916Z" fill="white"/>
<path fill-rule="evenodd" clip-rule="evenodd" d="M452.536 39.0864C463.072 39.0865 471.356 44.3091 474.958 53.3138C476.669 57.6361 477.299 60.878 477.569 67.0013C477.569 67.1813 477.569 67.4516 477.749 69.5224H438.578C439.028 74.475 439.84 76.9966 441.911 79.608C444.522 82.8495 448.574 84.6503 453.166 84.6503C457.578 84.6503 461.36 83.0294 463.972 80.1479C465.052 78.8874 465.683 77.897 466.583 75.4661L477.209 78.8878C475.138 83.2098 473.967 84.9212 471.716 87.1723C467.033 91.7645 460.73 94.1057 453.166 94.1057C437.228 94.1057 427.142 83.4796 427.142 66.6407C427.143 49.9821 437.138 39.0864 452.536 39.0864ZM452.356 48.3616C445.332 48.3616 440.199 53.0438 438.849 60.6078H466.043C465.413 56.6457 464.332 54.2147 462.081 51.9635C459.649 49.5323 456.588 48.3616 452.356 48.3616Z" fill="white"/>
<path fill-rule="evenodd" clip-rule="evenodd" d="M382.024 20.7163C381.574 24.4983 381.394 27.4704 381.394 32.8732V41.878C381.394 43.3187 381.304 45.5697 381.213 48.6311C385.896 42.3281 391.479 39.5372 399.763 39.5371C414.891 39.5371 423.805 49.3519 423.805 66.1008C423.805 74.9255 421.285 82.1297 416.422 87.1723C412.19 91.4946 406.427 93.655 399.133 93.6551C390.849 93.6551 385.716 91.0438 381.213 84.7404C381.304 85.911 381.304 86.9021 381.304 87.9827V92.3949H369.327C369.777 88.4328 369.957 85.5508 369.957 80.238V32.7831C369.957 28.1907 369.777 25.0386 369.327 20.7163H382.024ZM398.413 48.9917C393.37 48.9917 389.137 50.7031 386.166 53.9448C383.464 56.9164 381.753 61.779 381.753 66.4613C381.754 72.1342 384.095 77.8072 387.697 80.6887C390.308 82.7596 393.82 84.0202 397.152 84.0202C406.247 84.0202 412.099 76.9966 412.099 66.1008C412.099 55.7454 406.697 48.9919 398.413 48.9917Z" fill="white"/>
<path d="M305.161 40.708C305.432 42.689 306.242 45.7504 307.412 49.0818L316.597 75.1957C317.137 76.6364 317.948 79.3376 318.488 81.2286C319.119 79.2477 319.839 76.9965 320.47 75.1957L329.654 49.0818C331.094 44.8498 331.545 43.2291 331.905 40.708H345.593C344.332 43.2293 343.251 45.7504 341.54 50.1626L327.673 84.3808C325.872 88.9731 325.602 89.7836 324.972 92.3949H312.095C311.555 89.9637 311.194 88.8831 309.393 84.3808L295.616 50.1626C294.625 47.8214 293.185 44.4898 291.384 40.708H305.161Z" fill="white"/>
<path d="M361.629 40.7071C361.179 44.0388 360.999 47.0106 360.999 52.5035V80.5986C360.999 85.5512 361.179 88.6129 361.629 92.3949H348.483C349.023 88.3428 349.203 85.191 349.203 80.6887V52.4133C349.203 47.4608 349.023 44.399 348.483 40.7071H361.629Z" fill="white"/>
<path d="M361.719 32.153H348.483V20.7163H361.719V32.153Z" fill="white"/>
<path d="M110.944 5.62474C122.704 -1.12547 137.213 -1.08921 149.006 5.71946L240.523 58.5564C252.316 65.3652 259.601 77.9125 259.635 91.4714L259.897 196.691C259.93 210.25 252.708 222.761 240.948 229.511L149.694 281.894C137.935 288.645 123.426 288.608 111.633 281.8L20.1163 228.963C8.32333 222.154 1.0378 209.607 1.00402 196.048L0.741328 90.8279C0.707715 77.269 7.93129 64.7577 19.6905 58.0075L110.944 5.62474ZM149.901 87.1404C145.517 82.8992 138.606 82.8791 134.198 86.9968L133.779 87.4079L133.091 88.1257C104.164 118.515 103.887 150.025 111.448 173.624C115.159 185.203 120.674 194.74 125.194 201.336C127.469 204.654 129.53 207.285 131.054 209.119C131.817 210.037 132.449 210.76 132.909 211.273C133.139 211.53 133.328 211.735 133.468 211.886C133.538 211.962 133.597 212.024 133.643 212.073C133.666 212.097 133.686 212.118 133.702 212.135C133.711 212.144 133.718 212.153 133.725 212.16C133.728 212.163 133.732 212.168 133.734 212.17C133.738 212.174 133.742 212.178 141.785 204.471L133.742 212.178C138.099 216.725 145.317 216.879 149.863 212.522C154.401 208.174 154.563 200.974 150.231 196.426C150.226 196.421 150.21 196.404 150.184 196.376C150.129 196.316 150.028 196.208 149.887 196.051C149.605 195.736 149.161 195.229 148.593 194.545C147.453 193.173 145.827 191.104 144.004 188.444C140.329 183.082 136.01 175.547 133.164 166.666C127.759 149.796 127.343 127.578 149.115 104.368L150.169 103.262L150.567 102.83C154.535 98.2876 154.286 91.3816 149.901 87.1404ZM207.091 85.0075C201.057 84.1113 195.148 88.0681 193.611 93.9197L193.477 94.4919L171.017 201.791C169.727 207.954 173.73 213.701 179.958 214.626C186.187 215.551 192.281 211.305 193.571 205.141L216.032 97.8415L216.138 97.2654C217.07 91.3241 213.125 85.9039 207.091 85.0075ZM67.0255 93.9158C65.4891 88.0642 59.58 84.1074 53.546 85.0036C47.5123 85.9001 43.567 91.3203 44.4991 97.2615L44.6046 97.8376L67.0655 205.137C68.3557 211.301 74.4503 215.547 80.6788 214.622C86.9074 213.697 90.9104 207.95 89.6202 201.787L67.1603 94.488L67.0255 93.9158Z" fill="white"/>
</svg>
